<mxfile host="app.diagrams.net" modified="2024-01-09T11:49:07.329Z" agent="Mozilla/5.0 (Windows NT 10.0; Win64; x64) AppleWebKit/537.36 (KHTML, like Gecko) Chrome/120.0.0.0 Safari/537.36" version="21.8.2" etag="0PMqvH6NCDukwU0rhH3O" type="github">
  <diagram name="第 1 页" id="pj875K7tnn0IN6VTIoKF">
    <mxGraphModel>
      <root>
        <mxCell id="0" />
        <mxCell id="1" parent="0" />
      </root>
    </mxGraphModel>
  </diagram>
</mxfile>
